<?xml version="1.0" encoding="utf-8"?>
<!-- Generator: Adobe Illustrator 17.0.0, SVG Export Plug-In . SVG Version: 6.00 Build 0)  -->
<!DOCTYPE svg PUBLIC "-//W3C//DTD SVG 1.1//EN" "http://www.w3.org/Graphics/SVG/1.1/DTD/svg11.dtd">
<svg version="1.1" id="Layer_1" xmlns="http://www.w3.org/2000/svg" xmlns:xlink="http://www.w3.org/1999/xlink" x="0px" y="0px"
	 width="454.949px" height="456.46px" viewBox="0 0 454.949 456.46" enable-background="new 0 0 454.949 456.46"
	 xml:space="preserve">
<g id="YiahxB_1_">
	<g>
		<path d="M261.311,329.285c-0.001,32.163,0.006,64.325-0.006,96.488c-0.003,6.535-0.036,6.56-6.727,6.563
			c-23.664,0.012-47.327,0.006-70.991,0.005c-8.8,0-8.829-0.003-8.831-8.704c-0.009-57.493-0.003-114.985-0.009-172.478
			c-0.001-6.832-0.155-13.667-0.021-20.496c0.064-3.257-1.185-4.399-4.407-4.364c-10.664,0.117-21.333-0.119-31.994,0.088
			c-4.217,0.082-5.506-1.594-5.484-5.591c0.113-19.83,0.141-39.662-0.017-59.492c-0.036-4.503,1.839-5.698,6.006-5.616
			c10.161,0.202,20.333-0.092,30.493,0.137c4.125,0.093,5.514-1.301,5.49-5.429c-0.111-19.163-0.518-38.348,0.212-57.485
			c0.907-23.758,9.383-44.195,29.569-58.352c11.43-8.016,24.409-12.375,38.153-13.734c26.412-2.611,52.935-0.62,79.403-1.172
			c2.928-0.061,4.102,1.059,4.219,4.078c0.843,21.631,0.089,43.256,0.017,64.884c-0.014,4.154-2.335,4.51-5.469,4.503
			c-13.332-0.03-26.664,0.071-39.995-0.032c-5.907-0.046-10.655,2.187-14.611,6.408c-2.728,2.911-4.292,6.254-4.203,10.351
			c0.299,13.626-1.461,27.232-0.129,40.895c0.39,4.002,1.718,5.032,5.451,5.004c17.83-0.134,35.662,0.034,53.492-0.121
			c4.1-0.036,5.737,1.277,5.378,5.465c-1.776,20.712-4.222,41.344-7.115,61.927c-0.507,3.611-3.147,3.287-5.649,3.29
			c-15.165,0.018-30.329,0.022-45.494,0.037c-6.718,0.007-6.728,0.013-6.728,6.954C261.31,265.293,261.312,297.289,261.311,329.285z
			"/>
	</g>
</g>
</svg>
