<?xml version="1.0" encoding="utf-8"?>
<!-- Generator: Adobe Illustrator 17.0.0, SVG Export Plug-In . SVG Version: 6.00 Build 0)  -->
<!DOCTYPE svg PUBLIC "-//W3C//DTD SVG 1.1//EN" "http://www.w3.org/Graphics/SVG/1.1/DTD/svg11.dtd">
<svg version="1.1" id="Layer_1" xmlns="http://www.w3.org/2000/svg" xmlns:xlink="http://www.w3.org/1999/xlink" x="0px" y="0px"
	 width="454.949px" height="456.46px" viewBox="0 0 454.949 456.46" enable-background="new 0 0 454.949 456.46"
	 xml:space="preserve">
<g>
	<defs>
		<rect id="SVGID_1_" y="0.002" width="456.278" height="456.278"/>
	</defs>
	<clipPath id="SVGID_2_">
		<use xlink:href="#SVGID_1_"  overflow="visible"/>
	</clipPath>
	<path clip-path="url(#SVGID_2_)" fill="#010101" d="M228.14,41.105c60.916,0,68.13,0.233,92.188,1.33
		c22.242,1.015,34.323,4.733,42.362,7.856c10.649,4.139,18.25,9.083,26.232,17.065c7.984,7.984,12.928,15.583,17.065,26.232
		c3.124,8.039,6.841,20.12,7.856,42.362c1.097,24.058,1.33,31.272,1.33,92.188c0,60.918-0.233,68.132-1.33,92.188
		c-1.015,22.244-4.733,34.325-7.856,42.364c-4.137,10.647-9.081,18.248-17.065,26.232c-7.982,7.983-15.583,12.927-26.232,17.065
		c-8.039,3.124-20.12,6.841-42.362,7.855c-24.054,1.099-31.267,1.33-92.188,1.33c-60.921,0-68.134-0.231-92.188-1.33
		c-22.243-1.013-34.323-4.731-42.362-7.855c-10.649-4.139-18.25-9.083-26.232-17.065c-7.982-7.984-12.927-15.585-17.065-26.232
		c-3.124-8.039-6.841-20.12-7.856-42.364c-1.097-24.056-1.33-31.27-1.33-92.188c0-60.916,0.233-68.13,1.33-92.188
		c1.015-22.242,4.733-34.323,7.856-42.362c4.139-10.649,9.083-18.248,17.065-26.232c7.982-7.982,15.583-12.927,26.232-17.065
		c8.039-3.124,20.12-6.841,42.362-7.856C160.01,41.338,167.224,41.105,228.14,41.105 M228.14,0c-61.959,0-69.729,0.261-94.062,1.373
		c-24.283,1.109-40.867,4.965-55.378,10.605c-15.003,5.83-27.725,13.631-40.408,26.314C25.609,50.974,17.808,63.698,11.978,78.7
		c-5.641,14.513-9.497,31.096-10.605,55.38c-1.111,24.333-1.373,32.101-1.373,94.06c0,61.961,0.261,69.729,1.373,94.062
		c1.108,24.284,4.964,40.867,10.605,55.38c5.83,15.001,13.631,27.725,26.314,40.408c12.683,12.683,25.405,20.484,40.408,26.314
		c14.511,5.639,31.094,9.495,55.378,10.605c24.333,1.109,32.102,1.372,94.062,1.372c61.959,0,69.728-0.263,94.062-1.372
		c24.284-1.109,40.867-4.966,55.378-10.605c15.003-5.83,27.725-13.631,40.408-26.314c12.683-12.683,20.484-25.407,26.314-40.408
		c5.641-14.513,9.497-31.096,10.605-55.38c1.111-24.333,1.372-32.101,1.372-94.062c0-61.959-0.261-69.727-1.372-94.06
		c-1.108-24.283-4.964-40.867-10.605-55.38c-5.83-15.001-13.631-27.725-26.314-40.408c-12.683-12.683-25.405-20.484-40.408-26.314
		c-14.511-5.639-31.094-9.495-55.378-10.605C297.869,0.261,290.099,0,228.14,0"/>
	<path clip-path="url(#SVGID_2_)" fill="#010101" d="M228.14,110.987c-64.701,0-117.152,52.451-117.152,117.152
		c0,64.703,52.452,117.152,117.152,117.152c64.701,0,117.152-52.45,117.152-117.152C345.292,163.439,292.841,110.987,228.14,110.987
		 M228.14,304.186c-42,0-76.047-34.047-76.047-76.047c0-42,34.047-76.047,76.047-76.047c42,0,76.047,34.047,76.047,76.047
		C304.187,270.139,270.14,304.186,228.14,304.186"/>
	<path clip-path="url(#SVGID_2_)" fill="#010101" d="M377.299,106.358c0,15.119-12.256,27.377-27.377,27.377
		c-15.119,0-27.377-12.258-27.377-27.377c0-15.12,12.258-27.377,27.377-27.377C365.042,78.981,377.299,91.238,377.299,106.358"/>
</g>
</svg>
